<svg width="96" height="23" viewBox="0 0 96 23" fill="none" xmlns="http://www.w3.org/2000/svg">
<path d="M14.7514 10.5331H23.3665C23.4306 10.5328 23.4934 10.5142 23.5466 10.4798C23.6 10.4453 23.6415 10.3963 23.6661 10.3391C23.6907 10.2819 23.6973 10.219 23.6849 10.1582C23.6726 10.0974 23.642 10.0415 23.5969 9.99747L21.6765 8.14577C21.6434 8.11367 21.6035 8.08888 21.5595 8.07316C21.5154 8.05744 21.4684 8.05115 21.4216 8.05472L21.2672 8.06654L16.0797 8.53953L19.1287 6.18292C19.1653 6.15519 19.1952 6.12027 19.2166 6.08051C19.2379 6.04075 19.2504 5.99705 19.2529 5.95231C19.2555 5.90757 19.2481 5.86281 19.2314 5.82103C19.2146 5.77924 19.1888 5.74137 19.1557 5.70995L17.7513 4.37143C17.7187 4.3395 17.6795 4.31461 17.6362 4.29844C17.5929 4.28226 17.5465 4.27518 17.5001 4.27764C17.4537 4.28009 17.4085 4.29206 17.3672 4.31271C17.326 4.33337 17.2899 4.36225 17.2611 4.39744L14.8224 7.3358L15.3126 2.33409L15.3249 2.1851C15.3286 2.13995 15.3221 2.09457 15.3058 2.0521C15.2894 2.00963 15.2637 1.97109 15.2305 1.93916L13.3175 0.0862717C13.2714 0.0441053 13.2135 0.0158523 13.1511 0.00498454C13.0885 -0.00588322 13.0241 0.00110784 12.9657 0.0250988C12.9071 0.0490899 12.8573 0.0890353 12.822 0.140026C12.7868 0.191016 12.7678 0.25083 12.7673 0.312117V8.61993L14.7514 10.5331Z" fill="#004852"/>
<path d="M0.328223 10.5341H8.93844L10.9225 8.61977V0.313143C10.9222 0.251208 10.903 0.190733 10.8673 0.139299C10.8315 0.0878658 10.7808 0.0477646 10.7215 0.0240241C10.6622 0.000283491 10.5969 -0.00603957 10.534 0.00584757C10.471 0.0177347 10.413 0.0473026 10.3674 0.0908444L8.44458 1.94018C8.4113 1.97212 8.38562 2.01066 8.36933 2.05313C8.35303 2.0956 8.34651 2.14098 8.35022 2.18613L8.36248 2.33511L8.85266 7.33683L6.41886 4.39847C6.39011 4.36328 6.35394 4.33439 6.31273 4.31373C6.27151 4.29308 6.22622 4.28112 6.17985 4.27866C6.13348 4.27621 6.0871 4.28329 6.0438 4.29947C6.00049 4.31564 5.96124 4.34052 5.92867 4.37246L4.53529 5.7228C4.5022 5.75423 4.47641 5.79209 4.45965 5.83388C4.4429 5.87567 4.43554 5.92042 4.43809 5.96516C4.44065 6.0099 4.45304 6.0536 4.47444 6.09337C4.49586 6.13313 4.52579 6.16804 4.56225 6.19578L7.61125 8.55237L2.42379 8.0794L2.26939 8.06757C2.2226 8.064 2.17556 8.07029 2.13154 8.08602C2.08753 8.10174 2.04759 8.12651 2.01448 8.15862L0.0941557 9.9985C0.0488075 10.0428 0.0180882 10.099 0.00588596 10.1602C-0.0063163 10.2212 0.000547165 10.2845 0.0256077 10.3418C0.0506683 10.3992 0.0927988 10.448 0.146667 10.4823C0.200536 10.5165 0.26372 10.5345 0.328223 10.5341Z" fill="#004852"/>
<path d="M23.3669 12.3151H0.327873C0.264356 12.3155 0.202365 12.3338 0.149517 12.3679C0.0966708 12.4019 0.0552713 12.45 0.030407 12.5064C0.00554271 12.5628 -0.00170283 12.6251 0.00956049 12.6853C0.0208239 12.7456 0.0501054 12.8015 0.0938067 12.8459L2.01414 14.7024C2.04723 14.7344 2.08718 14.7593 2.1312 14.775C2.17521 14.7907 2.22224 14.797 2.26903 14.7934L2.42344 14.7816L10.9688 13.9929L10.3903 21.5842C10.3871 21.6272 10.3931 21.6704 10.408 21.711C10.4229 21.7517 10.4463 21.7889 10.4768 21.8204C10.5073 21.852 10.5441 21.877 10.5852 21.8942C10.6262 21.9113 10.6703 21.9201 10.715 21.92H12.7199C12.7646 21.9201 12.8089 21.9113 12.8499 21.8942C12.8908 21.877 12.9277 21.852 12.9582 21.8204C12.9887 21.7889 13.0121 21.7517 13.027 21.711C13.0419 21.6704 13.0479 21.6272 13.0447 21.5842L12.4663 13.9918L21.2628 14.7816L21.4171 14.7934C21.4639 14.797 21.511 14.7907 21.555 14.775C21.599 14.7593 21.639 14.7344 21.672 14.7024L23.5924 12.8459C23.6356 12.802 23.6648 12.7469 23.6764 12.6873C23.6879 12.6277 23.6815 12.5662 23.6576 12.5101C23.6338 12.454 23.5937 12.4057 23.5421 12.3711C23.4905 12.3366 23.4297 12.3171 23.3669 12.3151Z" fill="#004852"/>
<path d="M51.4448 9.16502C50.4849 8.50117 49.364 8.08702 48.1899 7.96249C46.6386 7.77329 45.1447 7.93765 43.728 8.61756C42.3113 9.29746 41.3677 10.3629 40.7525 11.7262C40.3334 12.6579 40.1827 13.6453 40.152 14.6527C40.1153 15.8848 40.2501 17.0932 40.7525 18.2391C41.2746 19.4298 42.0773 20.4065 43.2329 21.0769C44.8714 22.0347 46.6569 22.2499 48.5184 21.9602C49.8775 21.7618 51.1474 21.1868 52.174 20.3048C52.8171 19.7424 53.3281 19.0538 53.6727 18.2851C53.6835 18.261 53.6878 18.2346 53.6854 18.2085C53.683 18.1823 53.674 18.1571 53.6591 18.1351C53.6441 18.1131 53.6238 18.095 53.6 18.0824C53.5761 18.0699 53.5492 18.0631 53.5221 18.0629H50.8652C50.8374 18.0631 50.81 18.0695 50.7853 18.0819C50.7606 18.0942 50.7392 18.112 50.7231 18.1338C50.497 18.4302 50.226 18.6922 49.9191 18.9107C49.0878 19.4924 48.0831 19.7978 47.0564 19.7809C46.1543 19.8002 45.2707 19.5326 44.5418 19.0195C43.8776 18.5407 43.3932 17.8661 43.1618 17.098C43.0797 16.8438 43.0246 16.5813 42.9633 16.3082C42.9576 16.283 42.9578 16.257 42.964 16.2319C42.9701 16.2069 42.9819 16.1835 42.9986 16.1635C43.0153 16.1434 43.0363 16.1272 43.0604 16.116C43.0844 16.1049 43.1107 16.099 43.1373 16.0989H53.8688C53.9119 16.099 53.9536 16.0841 53.9863 16.057C54.0189 16.0298 54.0404 15.9922 54.0465 15.951C54.2438 14.5641 54.0465 12.9358 53.4779 11.6659C53.0478 10.6698 52.345 9.80539 51.4448 9.16502ZM51.1005 13.7766H43.1594C43.1337 13.7767 43.1083 13.7714 43.0849 13.7612C43.0616 13.7508 43.0408 13.7358 43.024 13.717C43.0072 13.6983 42.9948 13.6762 42.9877 13.6524C42.9807 13.6286 42.979 13.6036 42.9829 13.579C43.3003 11.7179 44.6447 10.3261 46.6876 10.2032C49.2267 10.0507 50.8799 11.4117 51.2782 13.5767C51.2829 13.6018 51.2818 13.6274 51.2751 13.6519C51.2682 13.6765 51.2559 13.6993 51.2389 13.7188C51.2219 13.7381 51.2008 13.7538 51.1768 13.7643C51.1529 13.7749 51.1268 13.7803 51.1005 13.7801V13.7766Z" fill="#004852"/>
<path d="M80.6456 7.81233C78.5733 7.84189 76.9227 8.55964 75.9741 10.474L75.658 8.18244C75.6521 8.14127 75.631 8.10353 75.5985 8.07616C75.5661 8.04879 75.5246 8.03363 75.4815 8.03345H73.1212C73.0978 8.03345 73.0748 8.03788 73.0532 8.0465C73.0317 8.05512 73.012 8.06774 72.9956 8.08366C72.9791 8.09959 72.966 8.11849 72.957 8.13929C72.9481 8.16009 72.9435 8.18239 72.9435 8.2049V21.732C72.9435 21.7545 72.9481 21.7768 72.957 21.7976C72.966 21.8184 72.9791 21.8373 72.9956 21.8532C73.012 21.8691 73.0317 21.8818 73.0532 21.8904C73.0748 21.899 73.0978 21.9035 73.1212 21.9035H75.7989C75.846 21.9035 75.8913 21.8853 75.9245 21.8532C75.9578 21.8211 75.9766 21.7775 75.9766 21.732V15.3113C75.9912 14.4936 76.1392 13.6831 76.4152 12.9098C76.6395 12.2844 76.9496 11.7049 77.4594 11.2425C78.0795 10.6821 78.8479 10.4563 79.6653 10.338C79.9961 10.2896 80.3331 10.2706 80.6701 10.2434C80.7146 10.2396 80.7559 10.2199 80.786 10.1882C80.8163 10.1564 80.8331 10.115 80.8332 10.072V7.98379C80.8331 7.9605 80.828 7.93748 80.8184 7.91613C80.8088 7.89476 80.7948 7.87549 80.7773 7.85946C80.7598 7.84345 80.7391 7.83102 80.7165 7.82292C80.6938 7.81482 80.6697 7.81122 80.6456 7.81233Z" fill="#004852"/>
<path d="M34.7317 21.818C34.8006 21.8845 34.894 21.9219 34.9915 21.922H38.6225C38.6509 21.922 38.6788 21.9167 38.7049 21.9062C38.731 21.8957 38.7547 21.8804 38.7747 21.861C38.7945 21.8417 38.8104 21.8187 38.821 21.7935C38.8317 21.7682 38.8372 21.7412 38.837 21.714V19.556C38.8372 19.5287 38.8317 19.5017 38.821 19.4764C38.8104 19.4512 38.7945 19.4282 38.7747 19.4089C38.7547 19.3896 38.731 19.3742 38.7049 19.3637C38.6788 19.3533 38.6509 19.3479 38.6225 19.3479H35.6385C35.5736 19.3479 35.5112 19.323 35.4652 19.2787C35.4192 19.2343 35.3934 19.1741 35.3934 19.1114V9.95341H38.3702C38.4273 9.95341 38.4821 9.93149 38.5226 9.89246C38.5631 9.85343 38.5858 9.8005 38.5858 9.7453V7.58735C38.5858 7.56008 38.5802 7.53308 38.5694 7.50789C38.5585 7.48271 38.5426 7.45984 38.5226 7.44062C38.5025 7.42138 38.4788 7.40616 38.4526 7.39584C38.4264 7.38551 38.3984 7.38027 38.3702 7.38042H35.3934V3.34358C35.3932 3.30849 35.3839 3.27399 35.3663 3.24332C35.3485 3.21265 35.3232 3.18678 35.2923 3.16814C35.2615 3.1495 35.2263 3.13868 35.19 3.13669C35.1536 3.13469 35.1174 3.1416 35.0846 3.15676L32.7562 4.22095C32.7195 4.23803 32.6886 4.26473 32.667 4.29797C32.6452 4.33122 32.6337 4.36968 32.6336 4.40896V7.38279H31.4829C31.4546 7.38264 31.4266 7.38787 31.4004 7.3982C31.3743 7.40853 31.3506 7.42374 31.3305 7.44298C31.3104 7.46221 31.2946 7.48507 31.2837 7.51025C31.2728 7.53544 31.2672 7.56244 31.2672 7.58972V9.74767C31.2672 9.80286 31.2899 9.85579 31.3304 9.89482C31.3708 9.93385 31.4257 9.95577 31.4829 9.95577H32.6336V19.6435C32.6337 19.7375 32.6725 19.8277 32.7415 19.8942L34.7317 21.818Z" fill="#004852"/>
<path d="M67.6064 8.74283C66.5358 8.16375 65.325 7.86915 64.0979 7.88911C62.1322 7.88911 60.5799 8.62971 59.441 10.1109L59.0525 3.41003C59.0503 3.37497 59.0388 3.34103 59.0194 3.31138C58.9998 3.28173 58.9728 3.25732 58.9409 3.24044C58.909 3.22356 58.8732 3.21475 58.8367 3.21484C58.8003 3.21494 58.7646 3.22391 58.7326 3.24095L56.5183 4.2874C56.4848 4.30533 56.457 4.33155 56.4375 4.36336C56.4182 4.39517 56.408 4.43141 56.408 4.46831V21.7142C56.408 21.769 56.4306 21.8217 56.4707 21.8605C56.511 21.8994 56.5655 21.9212 56.6224 21.9212H58.8674C58.9179 21.9213 58.9669 21.904 59.0054 21.8727C59.0441 21.8412 59.0699 21.7976 59.0783 21.7497L59.4128 19.9157C59.9036 20.588 60.5591 21.1326 61.3209 21.5013C62.1076 21.8892 63.0346 22.0831 64.1016 22.0831C65.3327 22.1026 66.5455 21.7936 67.6064 21.1903C68.6396 20.5907 69.4767 19.7223 70.0218 18.6848C70.6019 17.6103 70.8919 16.3779 70.8919 14.9872C70.8919 13.5242 70.6019 12.2598 70.0218 11.194C69.4801 10.1682 68.6409 9.31659 67.6064 8.74283ZM66.6002 18.6848C65.7971 19.6118 64.7485 20.0753 63.4545 20.0753C62.1604 20.0753 61.1179 19.607 60.327 18.6706C59.5337 17.7333 59.1375 16.5229 59.1383 15.0393C59.1383 13.5754 59.5346 12.3852 60.327 11.4684C61.1194 10.5516 62.1632 10.0928 63.4581 10.092C64.7522 10.092 65.8008 10.5556 66.6039 11.4826C67.407 12.4096 67.8082 13.605 67.8073 15.0689C67.8073 16.5532 67.4062 17.7586 66.6039 18.6848H66.6002Z" fill="#004852"/>
<path d="M95.6762 8.05192H93.4323C93.3818 8.05198 93.3329 8.06919 93.2941 8.10053C93.2553 8.13187 93.2292 8.17535 93.2204 8.22337L92.887 10.0833C92.402 9.3987 91.7452 8.84382 90.9777 8.4705C90.1909 8.08266 89.2644 7.88835 88.1983 7.88756C86.9763 7.87001 85.7725 8.17459 84.7167 8.76847C83.6801 9.36226 82.8382 10.2262 82.2878 11.261C81.6988 12.3347 81.4038 13.5762 81.4031 14.9857C81.4031 16.4306 81.6935 17.692 82.2743 18.7696C82.812 19.801 83.6514 20.6578 84.6885 21.2338C85.7585 21.8119 86.9685 22.1052 88.1946 22.0839C89.2428 22.0839 90.1599 21.8761 90.9459 21.4608C91.7144 21.0592 92.3773 20.4929 92.8834 19.8053L93.1922 21.7422C93.1996 21.7913 93.225 21.8362 93.264 21.8685C93.303 21.9009 93.3527 21.9186 93.4042 21.9183H95.6726C95.7008 21.9188 95.7289 21.9139 95.7552 21.9038C95.7814 21.8938 95.8054 21.8789 95.8256 21.8598C95.8459 21.8409 95.8621 21.8181 95.8733 21.7931C95.8844 21.768 95.8903 21.7411 95.8906 21.7138V8.25884C95.8906 8.20396 95.868 8.15133 95.8279 8.11252C95.7876 8.07371 95.7331 8.05192 95.6762 8.05192ZM91.8477 18.6702C91.0562 19.6067 90.0124 20.0749 88.7167 20.0749C87.421 20.0749 86.3723 19.6114 85.5709 18.6844C84.7694 17.7574 84.3683 16.5521 84.3674 15.0685C84.3674 13.6046 84.7686 12.4092 85.5709 11.4822C86.3732 10.5552 87.4218 10.0916 88.7167 10.0916C90.0124 10.0916 91.0562 10.5504 91.8477 11.468C92.6394 12.3856 93.0357 13.5758 93.0365 15.039C93.0365 16.5233 92.6403 17.7338 91.8477 18.6702Z" fill="#004852"/>
</svg>
